<svg xmlns="http://www.w3.org/2000/svg" width="436.894" height="31.763" viewBox="0 0 436.894 31.763">
    <defs>
        <clipPath id="zgefs7sywa">
            <path data-name="Clip 2" d="M0 0h5.46v5.46H0z" style="fill:none"/>
        </clipPath>
        <clipPath id="9wa4rmb1kb">
            <path data-name="Clip 5" d="M0 0h21.481v22.617H0z" style="fill:#409"/>
        </clipPath>
    </defs>
    <g data-name="Group 5372">
        <g data-name="Group 3300">
            <g data-name="Group 3104">
                <g data-name="Group 461">
                    <g data-name="Group 460">
                        <path data-name="Path 28" d="M31.32 776.539H18.567v7.137h11.409v2.151H18.567v7.317h12.9v2.15H16.208v-20.9H31.32z" transform="translate(15.64 -769.665)" style="fill:#409"/>
                        <path data-name="Path 29" d="M83.968 805.257H81.31l-4.778-6.3-4.808 6.3h-2.569l6.063-7.855-5.824-7.585h2.628l4.569 5.973 4.569-5.973h2.568l-5.854 7.526z" transform="translate(-18.552 -779.628)" style="fill:#409"/>
                        <path data-name="Path 30" d="M123.684 792.374a2.417 2.417 0 0 0 .717 2 2.938 2.938 0 0 0 1.881.568 4.645 4.645 0 0 0 2.24-.538v1.971a5.13 5.13 0 0 1-1.27.492 6.361 6.361 0 0 1-1.508.164 6.085 6.085 0 0 1-1.732-.239 3.56 3.56 0 0 1-1.389-.761 3.514 3.514 0 0 1-.911-1.359 5.465 5.465 0 0 1-.329-2v-9.317h-2.15v-2.031h2.15v-4.659h2.3v4.659h4.9v2.031h-4.9z" transform="translate(-50.892 -771.135)" style="fill:#409"/>
                        <path data-name="Path 31" d="M160.906 804.762h-2.3v-15.44h2.3v4.032a8.214 8.214 0 0 1 1.045-1.762 7 7 0 0 1 1.434-1.389 6.092 6.092 0 0 1 1.762-.881 6.3 6.3 0 0 1 2.061-.268v2.478h-.179a6.342 6.342 0 0 0-2.374.448 5.385 5.385 0 0 0-1.956 1.344 6.371 6.371 0 0 0-1.314 2.225 9.019 9.019 0 0 0-.478 3.061z" transform="translate(-76.317 -779.134)" style="fill:#409"/>
                        <path data-name="Path 32" d="M192.674 800.014a5.363 5.363 0 0 0 1.225 1.642 5.161 5.161 0 0 0 1.672 1.016 5.539 5.539 0 0 0 1.941.344 5.921 5.921 0 0 0 2.763-.6 8.176 8.176 0 0 0 2.105-1.583l1.434 1.284a9.433 9.433 0 0 1-2.658 2.105 7.845 7.845 0 0 1-3.7.791 7.7 7.7 0 0 1-2.986-.583 7.422 7.422 0 0 1-2.456-1.642 7.843 7.843 0 0 1-1.672-2.553 8.486 8.486 0 0 1-.62-3.285 8.916 8.916 0 0 1 .553-3.151 7.918 7.918 0 0 1 1.538-2.568 7.188 7.188 0 0 1 2.344-1.717 7.452 7.452 0 0 1 6.018.015 6.678 6.678 0 0 1 2.27 1.747 7.608 7.608 0 0 1 1.4 2.6 10.425 10.425 0 0 1 .478 3.195v.329a2.823 2.823 0 0 1-.03.388h-12.217a6.351 6.351 0 0 0 .598 2.226zm9.288-3.927a7.936 7.936 0 0 0-.431-2 5.329 5.329 0 0 0-.949-1.673 4.6 4.6 0 0 0-1.485-1.15 4.54 4.54 0 0 0-2.034-.433 4.354 4.354 0 0 0-1.87.4 4.882 4.882 0 0 0-1.514 1.1 5.81 5.81 0 0 0-1.068 1.669 7.045 7.045 0 0 0-.534 2.09z" transform="translate(-96.408 -779.029)" style="fill:#409"/>
                        <path data-name="Path 33" d="M257.029 790.771a5.946 5.946 0 0 1 1.18-.985 5.74 5.74 0 0 1 1.478-.657 6.583 6.583 0 0 1 1.837-.239 5.434 5.434 0 0 1 4.211 1.657 6.475 6.475 0 0 1 1.523 4.554v9.557h-2.3v-9.019a5.073 5.073 0 0 0-1.06-3.449 3.708 3.708 0 0 0-2.942-1.21 4.341 4.341 0 0 0-1.643.314 3.85 3.85 0 0 0-1.359.925 4.488 4.488 0 0 0-.926 1.508 5.645 5.645 0 0 0-.343 2.031v8.9h-2.27v-9.079a4.977 4.977 0 0 0-1.06-3.39 3.672 3.672 0 0 0-2.912-1.21 4.02 4.02 0 0 0-1.7.358 4.108 4.108 0 0 0-1.359 1.016 4.833 4.833 0 0 0-.91 1.538 5.557 5.557 0 0 0-.329 1.956v8.81h-2.3v-15.44h2.3v2.6a12.617 12.617 0 0 1 .851-1.105 5.315 5.315 0 0 1 1.061-.941 5.246 5.246 0 0 1 1.344-.642 5.706 5.706 0 0 1 1.733-.239 5.189 5.189 0 0 1 3.106.881 5.7 5.7 0 0 1 1.851 2.195 9.776 9.776 0 0 1 .938-1.195z" transform="translate(-131.362 -779.029)" style="fill:#409"/>
                        <path data-name="Path 34" d="M325.8 800.014a5.364 5.364 0 0 0 1.225 1.642 5.163 5.163 0 0 0 1.672 1.016 5.542 5.542 0 0 0 1.941.344 5.922 5.922 0 0 0 2.763-.6 8.173 8.173 0 0 0 2.105-1.583l1.434 1.284a9.437 9.437 0 0 1-2.658 2.105 7.847 7.847 0 0 1-3.7.791 7.7 7.7 0 0 1-2.986-.583 7.423 7.423 0 0 1-2.456-1.642 7.847 7.847 0 0 1-1.672-2.553 8.487 8.487 0 0 1-.62-3.285 8.924 8.924 0 0 1 .552-3.151 7.929 7.929 0 0 1 1.538-2.568 7.191 7.191 0 0 1 2.344-1.717 7.452 7.452 0 0 1 6.018.015 6.682 6.682 0 0 1 2.27 1.747 7.623 7.623 0 0 1 1.4 2.6 10.435 10.435 0 0 1 .478 3.195v.329a2.807 2.807 0 0 1-.03.388H325.2a6.364 6.364 0 0 0 .6 2.226zm9.288-3.927a7.94 7.94 0 0 0-.431-2 5.342 5.342 0 0 0-.949-1.673 4.6 4.6 0 0 0-1.485-1.15 4.537 4.537 0 0 0-2.033-.433 4.354 4.354 0 0 0-1.87.4 4.887 4.887 0 0 0-1.514 1.1 5.807 5.807 0 0 0-1.07 1.669 7.039 7.039 0 0 0-.534 2.09z" transform="translate(-182.377 -779.029)" style="fill:#409"/>
                    </g>
                </g>
                <g data-name="Group 3">
                    <path data-name="Clip 2" d="M0 0h5.46v5.46H0z" style="fill:none" transform="translate(158.435 9.626)"/>
                    <g data-name="Group 3" style="clip-path:url(#zgefs7sywa)" transform="translate(158.435 9.626)">
                        <path data-name="Fill 1" d="M2.722 5.46A2.709 2.709 0 0 1 0 2.746V2.73A2.737 2.737 0 0 1 2.738 0 2.711 2.711 0 0 1 5.46 2.716v.014a2.738 2.738 0 0 1-2.738 2.73zM2.738.235a2.466 2.466 0 0 0-2.49 2.5v.016a2.451 2.451 0 0 0 2.474 2.476 2.466 2.466 0 0 0 2.489-2.5v-.011A2.45 2.45 0 0 0 2.738.235zM2.074 4.05h-.415v-2.8h1.252a1.174 1.174 0 0 1 .829.294.736.736 0 0 1 .226.544V2.1a.83.83 0 0 1-.724.822l.867 1.122H3.6l-.81-1.05h-.716V4.05zm0-2.421v1h.8c.409 0 .663-.191.663-.5v-.017c0-.3-.245-.483-.64-.483z" style="fill:#409"/>
                    </g>
                </g>
            </g>
            <g data-name="Group 7">
                <g data-name="Group 6">
                    <path data-name="Clip 5" d="M0 0h21.481v22.617H0z" style="fill:none" transform="translate(0 4.021)"/>
                    <g data-name="Group 6" style="clip-path:url(#9wa4rmb1kb)" transform="translate(0 4.021)">
                        <path data-name="Fill 4" d="M21.1 22.618H5.557a2.325 2.325 0 0 1-.88-.172 2.293 2.293 0 0 1-.747-.49L0 18.094V.377A.381.381 0 0 1 .384 0H21.1a.381.381 0 0 1 .384.377v3.769a.381.381 0 0 1-.384.377H4.987A.381.381 0 0 0 4.6 4.9v7.734a2.217 2.217 0 0 1-.175.865 2.248 2.248 0 0 1-.5.734L0 18.094h21.1a.381.381 0 0 1 .384.377v3.77a.381.381 0 0 1-.384.377zm-3.012-9.047h-8.5a.381.381 0 0 1-.384-.377v-3.77a.381.381 0 0 1 .384-.377h8.5a.381.381 0 0 1 .384.377v3.77a.381.381 0 0 1-.386.377z" style="fill:#409"/>
                    </g>
                </g>
            </g>
        </g>
        <g data-name="Group 5371">
            <g data-name="Group 5370">
                <g data-name="Group 5366">
                    <path data-name="Path 3673" d="M222.244 21.506h9.749v1.625h-11.532v-15.8h11.418v1.627h-9.635v5.4h8.617v1.62h-8.62zm22.994-10.041h-1.94l-3.453 4.513-3.453-4.513h-1.985l4.4 5.732-4.581 5.935h1.941l3.633-4.761 3.611 4.761h2.008l-4.6-5.98zm5.348-3.52h-1.737v3.52h-1.625v1.534h1.625v7.041a4.125 4.125 0 0 0 .248 1.512 2.652 2.652 0 0 0 .688 1.027 2.689 2.689 0 0 0 1.049.575 4.589 4.589 0 0 0 1.309.181 4.817 4.817 0 0 0 1.14-.124 3.886 3.886 0 0 0 .959-.372v-1.491a3.5 3.5 0 0 1-1.692.406 2.222 2.222 0 0 1-1.422-.429 1.827 1.827 0 0 1-.542-1.512v-6.814h3.7v-1.534h-3.7zm10.381 4.186a5.3 5.3 0 0 0-1.083 1.049 6.218 6.218 0 0 0-.79 1.331v-3.046h-1.733v11.666h1.738v-4.648a6.818 6.818 0 0 1 .361-2.313 4.811 4.811 0 0 1 .993-1.681 4.063 4.063 0 0 1 1.478-1.015 4.785 4.785 0 0 1 1.794-.338h.135v-1.878a4.771 4.771 0 0 0-1.557.2 4.6 4.6 0 0 0-1.336.672zm14.984 2.854a7.883 7.883 0 0 1 .361 2.415v.248a2.1 2.1 0 0 1-.023.293h-9.228a4.8 4.8 0 0 0 .451 1.681 4.056 4.056 0 0 0 .925 1.241 3.9 3.9 0 0 0 1.264.767 4.18 4.18 0 0 0 1.467.26 4.476 4.476 0 0 0 2.087-.451 6.181 6.181 0 0 0 1.591-1.2l1.083.97a7.128 7.128 0 0 1-2.008 1.591 5.929 5.929 0 0 1-2.8.6 5.829 5.829 0 0 1-2.26-.442 5.616 5.616 0 0 1-1.856-1.241 5.922 5.922 0 0 1-1.264-1.929 6.407 6.407 0 0 1-.469-2.482 6.742 6.742 0 0 1 .417-2.381 5.982 5.982 0 0 1 1.172-1.937 5.426 5.426 0 0 1 1.771-1.3 5.629 5.629 0 0 1 4.547.011 5.047 5.047 0 0 1 1.715 1.32 5.751 5.751 0 0 1 1.057 1.966zm-1.422 1.673a6 6 0 0 0-.325-1.512 4.028 4.028 0 0 0-.718-1.264 3.472 3.472 0 0 0-1.122-.869 3.431 3.431 0 0 0-1.537-.327 3.29 3.29 0 0 0-1.413.3 3.689 3.689 0 0 0-1.144.835 4.4 4.4 0 0 0-.807 1.252 5.323 5.323 0 0 0-.402 1.585zm18.188-5.438a4.965 4.965 0 0 0-1.388.181 4.314 4.314 0 0 0-1.117.5 4.47 4.47 0 0 0-.891.745 7.355 7.355 0 0 0-.711.9 4.305 4.305 0 0 0-1.4-1.659 3.922 3.922 0 0 0-2.347-.666 4.3 4.3 0 0 0-1.309.181 3.963 3.963 0 0 0-1.015.485 4.005 4.005 0 0 0-.8.711 9.426 9.426 0 0 0-.643.835v-1.968h-1.735v11.666h1.738v-6.657a4.194 4.194 0 0 1 .248-1.478 3.664 3.664 0 0 1 .688-1.162 3.09 3.09 0 0 1 1.027-.767 3.031 3.031 0 0 1 1.286-.271 2.774 2.774 0 0 1 2.2.914 3.761 3.761 0 0 1 .8 2.561v6.86h1.713v-6.724a4.261 4.261 0 0 1 .26-1.534 3.385 3.385 0 0 1 .7-1.14 2.9 2.9 0 0 1 1.027-.7 3.282 3.282 0 0 1 1.241-.237 2.8 2.8 0 0 1 2.223.914 3.833 3.833 0 0 1 .8 2.606v6.815h1.738V15.91a4.893 4.893 0 0 0-1.151-3.441 4.106 4.106 0 0 0-3.182-1.253zm18.053 3.769a7.89 7.89 0 0 1 .361 2.415v.248a2.14 2.14 0 0 1-.022.293h-9.23a4.8 4.8 0 0 0 .451 1.681 4.056 4.056 0 0 0 .925 1.241 3.9 3.9 0 0 0 1.264.767 4.181 4.181 0 0 0 1.467.26 4.475 4.475 0 0 0 2.087-.451 6.182 6.182 0 0 0 1.591-1.2l1.083.97a7.134 7.134 0 0 1-2.008 1.591 5.931 5.931 0 0 1-2.8.6 5.829 5.829 0 0 1-2.257-.44 5.617 5.617 0 0 1-1.856-1.241 5.922 5.922 0 0 1-1.265-1.932 6.411 6.411 0 0 1-.469-2.482 6.742 6.742 0 0 1 .417-2.381 5.986 5.986 0 0 1 1.162-1.941 5.429 5.429 0 0 1 1.771-1.3 5.629 5.629 0 0 1 4.547.011 5.047 5.047 0 0 1 1.715 1.32 5.755 5.755 0 0 1 1.066 1.967zm-1.422 1.669a5.981 5.981 0 0 0-.325-1.512 4.027 4.027 0 0 0-.717-1.264 3.475 3.475 0 0 0-1.122-.869 3.431 3.431 0 0 0-1.537-.327 3.291 3.291 0 0 0-1.413.3 3.689 3.689 0 0 0-1.144.835 4.4 4.4 0 0 0-.807 1.252 5.33 5.33 0 0 0-.4 1.58zm15.187 4.5a6.091 6.091 0 0 1-2.8.6 5.792 5.792 0 0 1-2.426-.508 6.069 6.069 0 0 1-1.941-1.388 6.352 6.352 0 0 1-1.286-2.076 7.066 7.066 0 0 1-.463-2.573 6.979 6.979 0 0 1 .463-2.561 6.381 6.381 0 0 1 1.286-2.065 6.247 6.247 0 0 1 7.153-1.264 9.98 9.98 0 0 1 2.178 1.557l1.219-1.309a11.968 11.968 0 0 0-1.219-1.027 7.291 7.291 0 0 0-1.377-.79 8.145 8.145 0 0 0-1.613-.508 9.638 9.638 0 0 0-1.952-.181 7.891 7.891 0 0 0-3.2.643 7.712 7.712 0 0 0-2.527 1.76 8.153 8.153 0 0 0-1.659 2.606 8.824 8.824 0 0 0 0 6.386 7.887 7.887 0 0 0 1.659 2.584 7.767 7.767 0 0 0 5.664 2.358 8.747 8.747 0 0 0 1.963-.2 8.169 8.169 0 0 0 1.647-.564 7.906 7.906 0 0 0 1.433-.869 11.234 11.234 0 0 0 1.275-1.14l-1.173-1.151a9.745 9.745 0 0 1-2.304 1.68zm6.454 1.975h1.738V6.658h-1.738zm16.766-8.191a6.222 6.222 0 0 1-1.286 6.657 5.955 5.955 0 0 1-1.941 1.32 6.111 6.111 0 0 1-2.437.485 5.947 5.947 0 0 1-2.415-.485 6.106 6.106 0 0 1-1.915-1.311 5.88 5.88 0 0 1-1.264-1.929 6.141 6.141 0 0 1-.451-2.347 6.229 6.229 0 0 1 .451-2.358 5.923 5.923 0 0 1 3.193-3.272 6.171 6.171 0 0 1 6.8 1.309 5.889 5.889 0 0 1 1.265 1.929zm-1.331 2.381a4.827 4.827 0 0 0-.327-1.778 4.454 4.454 0 0 0-.914-1.452 4.386 4.386 0 0 0-1.377-.979 4.086 4.086 0 0 0-1.715-.36 4.252 4.252 0 0 0-1.738.349 3.871 3.871 0 0 0-1.343.968 4.625 4.625 0 0 0-.869 1.441 4.872 4.872 0 0 0-.316 1.767 4.82 4.82 0 0 0 .327 1.779 4.415 4.415 0 0 0 .9 1.44 4.329 4.329 0 0 0 1.365.968 4.079 4.079 0 0 0 1.715.36 4.249 4.249 0 0 0 1.738-.349 4.067 4.067 0 0 0 1.354-.957 4.4 4.4 0 0 0 .88-1.429 4.886 4.886 0 0 0 .319-1.771zm13.2.824a3.98 3.98 0 0 1-.271 1.489 3.61 3.61 0 0 1-.733 1.162 3.117 3.117 0 0 1-1.106.745 3.674 3.674 0 0 1-1.388.26 3.018 3.018 0 0 1-2.392-.948 3.753 3.753 0 0 1-.835-2.573v-6.817h-1.738v7.243a5.627 5.627 0 0 0 .3 1.9 4.223 4.223 0 0 0 .88 1.478 3.9 3.9 0 0 0 1.4.959 4.923 4.923 0 0 0 1.884.338 4.19 4.19 0 0 0 2.459-.666 5.49 5.49 0 0 0 1.535-1.613v2.031h1.715v-11.67h-1.715zm14.984-11.489h1.738v16.473h-1.738v-2.347a9.042 9.042 0 0 1-.8.993 5.475 5.475 0 0 1-.982.835 4.557 4.557 0 0 1-1.207.564 5.052 5.052 0 0 1-1.478.2 5.374 5.374 0 0 1-2.054-.406 5.472 5.472 0 0 1-1.783-1.185 5.778 5.778 0 0 1-1.264-1.907 6.59 6.59 0 0 1-.474-2.573 6.594 6.594 0 0 1 .474-2.573 5.783 5.783 0 0 1 1.264-1.907 5.631 5.631 0 0 1 1.783-1.2 5.249 5.249 0 0 1 2.054-.417 5.167 5.167 0 0 1 1.489.2 4.994 4.994 0 0 1 1.219.542 5.259 5.259 0 0 1 .982.79 7.056 7.056 0 0 1 .779.948zm.068 10.629a4.7 4.7 0 0 0-.35-1.841 4.264 4.264 0 0 0-.948-1.414 4.433 4.433 0 0 0-1.354-.909 3.926 3.926 0 0 0-1.568-.326 4.206 4.206 0 0 0-1.6.3 3.743 3.743 0 0 0-1.3.876 4.189 4.189 0 0 0-.88 1.414 5.2 5.2 0 0 0-.327 1.9 5.049 5.049 0 0 0 .327 1.864 4.373 4.373 0 0 0 .891 1.426 3.847 3.847 0 0 0 1.309.909 4.022 4.022 0 0 0 1.58.314 3.926 3.926 0 0 0 1.568-.325 4.437 4.437 0 0 0 1.354-.909 4.242 4.242 0 0 0 .948-1.426 4.785 4.785 0 0 0 .35-1.853zm16.536-6.634h8.417l-8.688 10.105v2.64h13.156v-3.04h-8.688l8.688-10.11v-2.64h-12.885zm29.074-3.046h-13.089v3.2h4.807v12.595h3.475V10.81h4.807zm16.609 15.8h-3.634l-1.444-3.549h-6.68l-1.444 3.543h-3.543l6.77-15.909h3.2zm-6.318-6.612-2.1-5.122-2.1 5.122zm-53.276-9.588h1.05v2.8h.353v-2.8h1.049v-.326h-2.452zm4.613 1.38-1.139-1.706h-.357v3.126h.344V7.48l1.139 1.67h.018l1.138-1.675v2.532h.353V6.881h-.357z"/>
                </g>
            </g>
            <g data-name="app store-01">
                <path data-name="Path 3587" d="m56.281 118.014-.75-.689a13.667 13.667 0 0 1-1.489-1.637 14.648 14.648 0 0 1-2.141-3.86 17.784 17.784 0 0 1-.925-3.46c-.1-.634-.208-1.268-.269-1.908-.04-.418-.077-.836-.1-1.254-.116-1.761-.071-3.522-.057-5.279q.01-1.142.03-2.281a1.06 1.06 0 0 1 1.182-1.108c.585 0 1.168-.02 1.749-.076a16.02 16.02 0 0 0 2.413-.415 13.028 13.028 0 0 0 3.9-1.693 13.262 13.262 0 0 0 1.9-1.494 1.615 1.615 0 0 1 .619-.462 1.034 1.034 0 0 1 1.076.247 14.057 14.057 0 0 0 2.181 1.744 12.816 12.816 0 0 0 2.763 1.332 14.964 14.964 0 0 0 3.321.717 18.594 18.594 0 0 0 1.892.1 1.25 1.25 0 0 1 .773.2 1.082 1.082 0 0 1 .441.878v.048c.018 2.094.073 4.191.03 6.286-.015.737-.07 1.475-.138 2.21q-.121 1.327-.367 2.634a17.532 17.532 0 0 1-1.158 3.788 14.636 14.636 0 0 1-1.692 2.918 12.659 12.659 0 0 1-1.014 1.207c-.181.187-.356.381-.534.571a3.187 3.187 0 0 0-.466.407 16.691 16.691 0 0 1-2.969 2.075 22.065 22.065 0 0 1-2.459 1.16c-.325.13-.653.25-.984.365a1.24 1.24 0 0 1-.857-.045 23.671 23.671 0 0 1-3.127-1.38 17.7 17.7 0 0 1-2.563-1.685c-.067-.055-.12-.136-.211-.161zm6.433 1.752a.6.6 0 0 0 .313-.037 21.061 21.061 0 0 0 3.039-1.347 14.163 14.163 0 0 0 4.048-3.263 13.178 13.178 0 0 0 2.291-3.989 18.694 18.694 0 0 0 .976-4.327 31.344 31.344 0 0 0 .2-3.231c.02-1.692-.023-3.383-.052-5.075a.913.913 0 0 0-.752-.885 2.493 2.493 0 0 0-.461-.027 14.872 14.872 0 0 1-3.825-.509 11.55 11.55 0 0 1-3.91-1.916 14.341 14.341 0 0 1-1.214-1.033.783.783 0 0 0-.652-.273.9.9 0 0 0-.739.307 12.152 12.152 0 0 1-2.707 1.978 12.5 12.5 0 0 1-4.469 1.352c-.671.079-1.345.1-2.02.118a.907.907 0 0 0-.933.958q-.026 2.163-.048 4.325a31.02 31.02 0 0 0 .219 4.093 19.4 19.4 0 0 0 .645 3.2 13.909 13.909 0 0 0 1.993 4.149 13.591 13.591 0 0 0 4.188 3.774 19.846 19.846 0 0 0 3.513 1.611.774.774 0 0 0 .357.046z" transform="translate(139.085 -91.343)" style="fill:#8057b3"/>
                <path data-name="Union 4" d="M10.917 25.917a.762.762 0 0 1-.357-.045 20.065 20.065 0 0 1-3.514-1.611 13.659 13.659 0 0 1-4.188-3.774 14 14 0 0 1-1.993-4.149 19.357 19.357 0 0 1-.644-3.2A31.04 31.04 0 0 1 0 9.043Q.021 6.88.048 4.719a.91.91 0 0 1 .934-.959C1.657 3.739 2.33 3.72 3 3.642A12.537 12.537 0 0 0 7.476 2.29 12.135 12.135 0 0 0 10.182.312a.9.9 0 0 1 .735-.307.779.779 0 0 1 .651.273 14.279 14.279 0 0 0 1.216 1.032 11.5 11.5 0 0 0 3.906 1.916 14.82 14.82 0 0 0 3.826.51 2.563 2.563 0 0 1 .461.026.916.916 0 0 1 .752.886c.029 1.691.073 3.383.05 5.075a30.9 30.9 0 0 1-.2 3.23 18.717 18.717 0 0 1-.976 4.327 13.18 13.18 0 0 1-2.29 3.99 14.194 14.194 0 0 1-4.048 3.264 20.948 20.948 0 0 1-3.04 1.346.593.593 0 0 1-.225.044.609.609 0 0 1-.083-.007zm1.951-14.6v3.56a7.492 7.492 0 0 0 .056.939 2.61 2.61 0 0 0 1.653 2.244 4 4 0 0 0 .8.223 8.133 8.133 0 0 0 1.558.076c.255 0 .509-.006.763 0 .1 0 .088-.065.088-.126v-2.252c0-.126-.044-.149-.157-.146-.351.005-.7.011-1.052 0a.682.682 0 0 1-.747-.778V11.29c0-.116.034-.143.141-.143.555.005 1.106 0 1.658.005.113 0 .144-.033.144-.144V8.837c0-.12-.031-.154-.152-.153h-1.642c-.121 0-.151-.032-.151-.151.005-.687 0-1.373.005-2.059 0-.129-.033-.158-.157-.157-.879.005-1.754.007-2.631 0-.153 0-.181.048-.178.187.007.676 0 1.352 0 2.028 0 .07.023.154-.1.153-.243-.005-.486 0-.728 0-.373 0-.747.005-1.12-.018-.042 0-.085.009-.126.009q-1.418.006-2.838.008H3.841c-.122 0-.163.026-.163.157q.012 1.045 0 2.091c0 .158.034.2.2.2 1.2-.008 2.391-.005 3.588 0 .048 0 .119-.029.142.027s-.048.085-.076.129c-.007.009-.016.016-.021.024q-1.87 2.27-3.745 4.539a.477.477 0 0 0-.114.331c0 .667.008 1.333 0 2 0 .162.047.186.194.186q3.443-.008 6.887 0c.062 0 .125 0 .187.005.224-.012.224-.012.224-.234v-1.987c0-.238 0-.238-.224-.255-.37 0-.742.006-1.114.008H7.01c-.026-.04 0-.057.012-.077l3.808-4.521a.538.538 0 0 1 .048-.042c.039-.1.116-.12.216-.118.536 0 1.072.005 1.611 0 .135-.002.165.042.163.169zm-1.951.142v-.077c.003.026 0 .051 0 .076z" transform="translate(190.881 2.505)" style="fill:#fff"/>
                <path data-name="Path 3590" d="M161.143 268.771c-.063 0-.127-.005-.19-.005h-6.887c-.147 0-.2-.023-.194-.185.011-.666.007-1.33 0-2a.476.476 0 0 1 .115-.331q1.877-2.266 3.748-4.539c.007-.009.015-.016.02-.025.027-.043.1-.076.076-.128s-.1-.027-.143-.027h-3.587c-.165 0-.2-.045-.2-.2.009-.7.008-1.394 0-2.091 0-.131.04-.158.162-.158q2.057.006 4.113 0 1.418 0 2.837-.009c.042 0 .085-.006.127-.009.615.039 1.232.006 1.848.018.123 0 .1-.081.1-.153v-2.027c0-.14.026-.19.179-.187q1.316.012 2.631 0c.123 0 .16.028.159.157-.007.686 0 1.373-.006 2.059 0 .119.031.153.151.152.547-.006 1.095 0 1.642-.005.12 0 .153.033.152.153q-.008 1.085 0 2.171c0 .111-.03.143-.143.143-.553-.005-1.105 0-1.658 0-.109 0-.143.026-.143.143v3.767a.681.681 0 0 0 .747.778c.35.013.7.009 1.052 0 .113 0 .157.02.156.147-.006.75 0 1.5 0 2.251 0 .061.018.13-.088.127a15.838 15.838 0 0 1-2.323-.078 4.015 4.015 0 0 1-.8-.222 2.6 2.6 0 0 1-1.651-2.243 6.959 6.959 0 0 1-.057-.939v-3.56c0-.128-.028-.173-.165-.171-.537.008-1.074.005-1.61 0-.1 0-.178.019-.217.119a.57.57 0 0 0-.048.043l-3.807 4.521c-.017.02-.039.037-.012.077h2.793c.371 0 .743 0 1.114-.007.224.017.224.017.224.255v1.978c.007.228.007.228-.217.24z" transform="translate(40.656 -247.904)" style="fill:#40018e"/>
                <path data-name="Path 3592" d="M305.851 123.993a.785.785 0 0 1 .652.273 14.339 14.339 0 0 0 1.214 1.033 11.549 11.549 0 0 0 3.908 1.916 14.871 14.871 0 0 0 3.825.509 2.491 2.491 0 0 1 .461.027.913.913 0 0 1 .752.885c.029 1.692.073 3.383.052 5.075a31.359 31.359 0 0 1-.2 3.231 18.7 18.7 0 0 1-.976 4.327 13.2 13.2 0 0 1-2.291 3.989 14.163 14.163 0 0 1-4.048 3.263 21.06 21.06 0 0 1-3.039 1.347.6.6 0 0 1-.313.037v-7.555c.224-.012.224-.012.224-.234v-1.975c0-.238 0-.238-.224-.255v-4.437c0-.067.019-.14-.04-.2.039-.1.117-.12.217-.119.537 0 1.074.006 1.61 0 .137 0 .165.044.165.171v3.56a6.953 6.953 0 0 0 .057.939 2.6 2.6 0 0 0 1.651 2.243 4.015 4.015 0 0 0 .8.222 15.842 15.842 0 0 0 2.323.078c.105 0 .088-.066.088-.127v-2.251c0-.127-.043-.148-.156-.147-.35.006-.7.01-1.052 0a.682.682 0 0 1-.747-.778v-3.767c0-.115.035-.143.143-.143.553.005 1.105 0 1.658 0 .112 0 .143-.033.143-.143q-.006-1.086 0-2.171c0-.119-.032-.154-.152-.153-.547.006-1.094 0-1.642.005-.12 0-.152-.032-.151-.152.006-.686 0-1.373.006-2.059 0-.129-.036-.158-.159-.157q-1.315.008-2.631 0c-.153 0-.18.048-.179.187.007.676 0 1.352 0 2.027 0 .071.023.155-.1.153-.616-.012-1.233.021-1.848-.018l-.001-8.656z" transform="translate(-104.052 -121.481)" style="fill:#eae9ea"/>
            </g>
        </g>
        <path data-name="Line 164" transform="translate(176.752)" style="stroke:#b2b9c7;fill:none" d="M0 0v31.763"/>
    </g>
</svg>
