<svg xmlns="http://www.w3.org/2000/svg" width="526.833" height="141.805" viewBox="0 0 526.833 141.805">
    <g data-name="Group 5393">
        <g data-name="Group 5390">
            <path data-name="Path 3765" d="M191.767 105.135a6.452 6.452 0 0 1-1 .515 6.357 6.357 0 0 1-1.154.345 6.512 6.512 0 0 1-1.292.124 5.723 5.723 0 0 1-2.19-.4 4.889 4.889 0 0 1-2.763-2.8 5.672 5.672 0 0 1-.382-2.1 5.467 5.467 0 0 1 .39-2.058 5.146 5.146 0 0 1 2.777-2.85 5.281 5.281 0 0 1 2.139-.427 7.257 7.257 0 0 1 1.227.1 5.658 5.658 0 0 1 1.021.272 5.178 5.178 0 0 1 .889.432 6.5 6.5 0 0 1 .816.6l-1.146 1.367a6.665 6.665 0 0 0-.6-.455 3.766 3.766 0 0 0-.647-.346 4.005 4.005 0 0 0-.742-.22 4.61 4.61 0 0 0-.889-.081 3.039 3.039 0 0 0-1.315.287 3.286 3.286 0 0 0-1.059.788 3.789 3.789 0 0 0-.705 1.163 3.863 3.863 0 0 0-.256 1.413 4.2 4.2 0 0 0 .249 1.472 3.405 3.405 0 0 0 .713 1.171 3.31 3.31 0 0 0 1.1.773 3.531 3.531 0 0 0 1.433.28 4.3 4.3 0 0 0 1.373-.215 3.856 3.856 0 0 0 1.11-.569v-1.935h-2.631v-1.572h4.38v4.32a7.761 7.761 0 0 1-.846.606z"/>
            <path data-name="Path 3766" d="M194.962 95.656h1.793v8.656h5.407v1.631h-7.2z"/>
            <path data-name="Path 3767" d="M213.381 102.843a5.172 5.172 0 0 1-1.117 1.7 5.355 5.355 0 0 1-3.878 1.58 5.5 5.5 0 0 1-2.175-.419 5.11 5.11 0 0 1-2.793-2.828 5.534 5.534 0 0 1 0-4.115 5.169 5.169 0 0 1 1.117-1.7 5.369 5.369 0 0 1 3.88-1.58 5.492 5.492 0 0 1 2.174.419 5.11 5.11 0 0 1 2.792 2.828 5.534 5.534 0 0 1 0 4.115zm-1.756-3.446a3.6 3.6 0 0 0-.72-1.169 3.462 3.462 0 0 0-1.109-.793 3.556 3.556 0 0 0-2.815-.008 3.318 3.318 0 0 0-1.095.779 3.588 3.588 0 0 0-.713 1.161 4.049 4.049 0 0 0 0 2.836 3.6 3.6 0 0 0 .72 1.168 3.458 3.458 0 0 0 1.109.793 3.427 3.427 0 0 0 3.909-.771 3.565 3.565 0 0 0 .713-1.161 4.037 4.037 0 0 0 0-2.836z"/>
            <path data-name="Path 3768" d="M223.031 96.363a2.312 2.312 0 0 1 .91 1.929 2.625 2.625 0 0 1-.124.838 2.394 2.394 0 0 1-.322.641 2.283 2.283 0 0 1-.466.478 4.023 4.023 0 0 1-.547.352 5.241 5.241 0 0 1 .826.374 2.681 2.681 0 0 1 .643.507 2.039 2.039 0 0 1 .416.7 2.721 2.721 0 0 1 .147.931 2.634 2.634 0 0 1-.272 1.218 2.492 2.492 0 0 1-.77.888 3.585 3.585 0 0 1-1.2.542 6.184 6.184 0 0 1-1.555.184h-4.753V95.658h4.605a3.912 3.912 0 0 1 2.462.705zm-1.41 3.3a1.193 1.193 0 0 0 .527-1.071 1.156 1.156 0 0 0-.462-.983 2.2 2.2 0 0 0-1.34-.347h-2.592v2.749h2.461a2.525 2.525 0 0 0 1.406-.351zm.573 4.322a1.207 1.207 0 0 0 .527-1.066 1.188 1.188 0 0 0-.52-1.028 2.77 2.77 0 0 0-1.59-.368h-2.857v2.821h2.989a2.538 2.538 0 0 0 1.452-.363z"/>
            <path data-name="Path 3769" d="M236.419 105.943h-1.911l-1.044-2.484H228.6l-1.058 2.484h-1.852l4.526-10.36h1.676zm-5.394-8.2-1.763 4.115h3.541z"/>
            <path data-name="Path 3770" d="M238.18 95.656h1.794v8.656h5.407v1.631h-7.2z"/>
            <path data-name="Path 3771" d="M253.3 98.874a1.079 1.079 0 0 0 .376.411 2.97 2.97 0 0 0 .751.353q.479.161 1.215.338a11.5 11.5 0 0 1 1.437.456 3.581 3.581 0 0 1 1.038.609 2.409 2.409 0 0 1 .626.839 2.729 2.729 0 0 1 .214 1.124 3.038 3.038 0 0 1-.27 1.308 2.775 2.775 0 0 1-.751.97 3.294 3.294 0 0 1-1.155.6 5.083 5.083 0 0 1-1.484.206 6.468 6.468 0 0 1-2.276-.4 6.187 6.187 0 0 1-2.014-1.241l1.087-1.294a6.277 6.277 0 0 0 1.514.992 4.158 4.158 0 0 0 1.733.346 2.243 2.243 0 0 0 1.33-.353 1.115 1.115 0 0 0 .493-.956 1.256 1.256 0 0 0-.1-.5 1 1 0 0 0-.353-.4 2.964 2.964 0 0 0-.708-.346 11.992 11.992 0 0 0-1.172-.338 12.275 12.275 0 0 1-1.465-.426 3.744 3.744 0 0 1-1.076-.588 2.333 2.333 0 0 1-.663-.853 2.927 2.927 0 0 1-.228-1.219 2.82 2.82 0 0 1 .262-1.227 2.863 2.863 0 0 1 .721-.947 3.209 3.209 0 0 1 1.1-.61 4.5 4.5 0 0 1 1.409-.213 5.876 5.876 0 0 1 2.035.331 6.024 6.024 0 0 1 1.7.963l-.969 1.366a6.37 6.37 0 0 0-1.4-.786 3.8 3.8 0 0 0-1.4-.272 1.9 1.9 0 0 0-1.234.359 1.1 1.1 0 0 0-.441.875 1.239 1.239 0 0 0 .118.523z"/>
            <path data-name="Path 3772" d="M270.715 105.943h-1.912l-1.043-2.484h-4.864l-1.058 2.484h-1.852l4.526-10.36h1.676zm-5.393-8.2-1.763 4.115h3.542z"/>
            <path data-name="Path 3773" d="M272.477 95.656h1.792v8.656h5.408v1.631h-7.2z"/>
            <path data-name="Path 3774" d="M289.185 97.288h-5.818v2.646h5.157v1.63h-5.157v2.748h5.892v1.631h-7.685V95.656h7.612z"/>
            <path data-name="Path 3775" d="M293.036 98.874a1.082 1.082 0 0 0 .375.411 2.98 2.98 0 0 0 .751.353q.479.161 1.215.338a11.489 11.489 0 0 1 1.437.456 3.587 3.587 0 0 1 1.039.609 2.418 2.418 0 0 1 .626.839 2.743 2.743 0 0 1 .213 1.124 3.026 3.026 0 0 1-.27 1.308 2.772 2.772 0 0 1-.75.97 3.289 3.289 0 0 1-1.156.6 5.072 5.072 0 0 1-1.483.206 6.469 6.469 0 0 1-2.277-.4 6.194 6.194 0 0 1-2.014-1.241l1.087-1.294a6.313 6.313 0 0 0 1.514.992 4.162 4.162 0 0 0 1.734.346 2.241 2.241 0 0 0 1.329-.353 1.114 1.114 0 0 0 .493-.956 1.241 1.241 0 0 0-.1-.5 1 1 0 0 0-.353-.4 2.959 2.959 0 0 0-.707-.346 12 12 0 0 0-1.172-.338 12.282 12.282 0 0 1-1.465-.426 3.725 3.725 0 0 1-1.076-.588 2.344 2.344 0 0 1-.664-.853 2.938 2.938 0 0 1-.228-1.219 2.832 2.832 0 0 1 .262-1.227 2.883 2.883 0 0 1 .721-.947 3.216 3.216 0 0 1 1.105-.61 4.5 4.5 0 0 1 1.409-.213 5.873 5.873 0 0 1 2.035.331 6.028 6.028 0 0 1 1.7.963l-.97 1.366a6.349 6.349 0 0 0-1.4-.786 3.794 3.794 0 0 0-1.4-.272 1.907 1.907 0 0 0-1.235.359 1.094 1.094 0 0 0-.44.875 1.239 1.239 0 0 0 .115.523z"/>
            <path data-name="Path 3776" d="M315.079 105.943h-1.911l-1.044-2.484h-4.863l-1.058 2.484h-1.852l4.526-10.36h1.676zm-5.394-8.2-1.763 4.115h3.541z"/>
            <path data-name="Path 3777" d="M324.013 95.656h1.793v10.287h-1.511l-5.66-7.319v7.319h-1.793V95.656h1.672l5.5 7.113z"/>
            <path data-name="Path 3778" d="M337.354 102.82a4.772 4.772 0 0 1-1.124 1.639 5.319 5.319 0 0 1-1.734 1.087 5.983 5.983 0 0 1-2.212.4h-3.836V95.659h3.836a6.078 6.078 0 0 1 2.212.39 5.225 5.225 0 0 1 1.734 1.08 4.784 4.784 0 0 1 1.124 1.63 5.39 5.39 0 0 1 0 4.064zm-1.755-3.415a3.368 3.368 0 0 0-.722-1.113 3.27 3.27 0 0 0-1.128-.739 3.937 3.937 0 0 0-1.474-.265h-2.033v7.024h2.033a4.021 4.021 0 0 0 1.474-.258 3.238 3.238 0 0 0 1.128-.723 3.3 3.3 0 0 0 .722-1.108 3.987 3.987 0 0 0 0-2.818z"/>
            <path data-name="Path 3779" d="M351.99 100.638a3.14 3.14 0 0 1-.884 1.1 3.96 3.96 0 0 1-1.311.669 5.515 5.515 0 0 1-1.606.227h-2.047v3.307h-1.794V95.654h4.056a5.117 5.117 0 0 1 1.624.243 3.454 3.454 0 0 1 1.235.7 3.083 3.083 0 0 1 .778 1.087 3.57 3.57 0 0 1 .272 1.425 3.438 3.438 0 0 1-.323 1.529zm-2.117-2.885a2.591 2.591 0 0 0-1.623-.465h-2.108v3.718h2.108a2.432 2.432 0 0 0 1.63-.509 1.684 1.684 0 0 0 .6-1.349 1.649 1.649 0 0 0-.607-1.395z"/>
            <path data-name="Path 3780" d="M362.984 105.943h-1.911l-1.044-2.484h-4.863l-1.058 2.484h-1.852l4.526-10.36h1.676zm-5.394-8.2-1.762 4.115h3.541z"/>
            <path data-name="Path 3781" d="m371.344 105.944-2.535-3.586h-2.27v3.586h-1.793V95.657h4.585a5.241 5.241 0 0 1 1.595.228 3.478 3.478 0 0 1 1.205.647 2.779 2.779 0 0 1 .756 1.028 3.672 3.672 0 0 1 .082 2.513 2.966 2.966 0 0 1-.508.9 3.013 3.013 0 0 1-.77.661 3.788 3.788 0 0 1-.992.42l2.777 3.894zm-.59-8.22a2.518 2.518 0 0 0-1.576-.435h-2.639v3.468h2.653a2.363 2.363 0 0 0 1.548-.473 1.556 1.556 0 0 0 .575-1.269 1.534 1.534 0 0 0-.561-1.292z"/>
            <path data-name="Path 3782" d="M379.674 105.944h-1.822v-8.611h-3.262v-1.676h8.347v1.676h-3.263z"/>
            <path data-name="Path 3783" d="M392.021 95.656h1.793v10.287h-1.511l-5.66-7.319v7.319h-1.793V95.656h1.671l5.5 7.113z"/>
            <path data-name="Path 3784" d="M404.07 97.288h-5.818v2.646h5.157v1.63h-5.157v2.748h5.892v1.631h-7.685V95.656h7.612z"/>
            <path data-name="Path 3785" d="m412.902 105.944-2.536-3.586h-2.269v3.586h-1.793V95.657h4.585a5.232 5.232 0 0 1 1.594.228 3.472 3.472 0 0 1 1.206.647 2.789 2.789 0 0 1 .756 1.028 3.67 3.67 0 0 1 .081 2.513 2.985 2.985 0 0 1-.507.9 3.036 3.036 0 0 1-.771.661 3.8 3.8 0 0 1-.992.42l2.777 3.894zm-.591-8.22a2.516 2.516 0 0 0-1.577-.435h-2.638v3.468h2.653a2.361 2.361 0 0 0 1.547-.473 1.557 1.557 0 0 0 .575-1.269 1.535 1.535 0 0 0-.559-1.292z"/>
            <path data-name="Path 3786" d="M429.456 105.054a5.46 5.46 0 0 1-.933.572 4.722 4.722 0 0 1-1.095.368 6.423 6.423 0 0 1-1.315.124 5.24 5.24 0 0 1-2.086-.411 5.126 5.126 0 0 1-1.652-1.124 5.178 5.178 0 0 1-1.1-1.683 5.695 5.695 0 0 1-.007-4.159 5.123 5.123 0 0 1 2.77-2.844 5.349 5.349 0 0 1 2.146-.419 6.537 6.537 0 0 1 1.285.117 5.279 5.279 0 0 1 1.066.331 5.02 5.02 0 0 1 .9.507 6.949 6.949 0 0 1 .778.646l-1.161 1.337a5.781 5.781 0 0 0-1.307-.926 3.409 3.409 0 0 0-1.573-.353 3.216 3.216 0 0 0-1.359.287 3.356 3.356 0 0 0-1.081.779 3.5 3.5 0 0 0-.7 1.153 4 4 0 0 0-.25 1.426 4.063 4.063 0 0 0 .25 1.433 3.568 3.568 0 0 0 .7 1.167 3.3 3.3 0 0 0 1.081.786 3.218 3.218 0 0 0 1.359.287 3.4 3.4 0 0 0 1.616-.36 6.364 6.364 0 0 0 1.337-.978l1.162 1.176a6.752 6.752 0 0 1-.831.761z"/>
            <path data-name="Path 3787" d="M441.792 102.843a5.168 5.168 0 0 1-1.117 1.7 5.36 5.36 0 0 1-1.7 1.154 5.415 5.415 0 0 1-2.174.426 5.494 5.494 0 0 1-2.175-.419 5.112 5.112 0 0 1-2.792-2.828 5.534 5.534 0 0 1 0-4.115 5.171 5.171 0 0 1 1.117-1.7 5.367 5.367 0 0 1 3.88-1.58 5.5 5.5 0 0 1 2.174.419 5.119 5.119 0 0 1 2.792 2.828 5.534 5.534 0 0 1 0 4.115zm-1.756-3.446a3.619 3.619 0 0 0-.72-1.169 3.471 3.471 0 0 0-1.109-.793 3.556 3.556 0 0 0-2.814-.007 3.32 3.32 0 0 0-1.1.779 3.579 3.579 0 0 0-.713 1.161 4.045 4.045 0 0 0 0 2.836 3.605 3.605 0 0 0 .72 1.168 3.451 3.451 0 0 0 1.109.793 3.427 3.427 0 0 0 3.909-.771 3.577 3.577 0 0 0 .713-1.161 4.049 4.049 0 0 0 0-2.836z"/>
            <path data-name="Path 3788" d="M451.55 95.656h1.793v10.287h-1.515l-5.661-7.319v7.319h-1.793V95.656h1.672l5.5 7.113z"/>
            <path data-name="Path 3789" d="M463.628 97.288h-5.852v2.836h5.187v1.631h-5.187v4.188h-1.793V95.656h7.641z"/>
            <path data-name="Path 3790" d="M473.241 97.288h-5.819v2.646h5.158v1.63h-5.158v2.748h5.893v1.631h-7.685V95.656h7.612z"/>
            <path data-name="Path 3791" d="m482.07 105.944-2.536-3.586h-2.269v3.586h-1.794V95.657h4.585a5.242 5.242 0 0 1 1.595.228 3.479 3.479 0 0 1 1.205.647 2.78 2.78 0 0 1 .756 1.028 3.674 3.674 0 0 1 .082 2.513 2.972 2.972 0 0 1-.508.9 3.013 3.013 0 0 1-.77.661 3.788 3.788 0 0 1-.992.42l2.777 3.894zm-.59-8.22a2.518 2.518 0 0 0-1.576-.435h-2.638v3.468h2.653a2.36 2.36 0 0 0 1.547-.473 1.555 1.555 0 0 0 .576-1.269 1.534 1.534 0 0 0-.562-1.292z"/>
            <path data-name="Path 3792" d="M493.708 97.288h-5.818v2.646h5.157v1.63h-5.157v2.748h5.892v1.631h-7.686V95.656h7.612z"/>
            <path data-name="Path 3793" d="M503.113 95.656h1.793v10.287h-1.511l-5.661-7.319v7.319h-1.793V95.656h1.672l5.5 7.113z"/>
            <path data-name="Path 3794" d="M515.67 105.054a5.461 5.461 0 0 1-.934.572 4.719 4.719 0 0 1-1.1.368 6.423 6.423 0 0 1-1.315.124 5.24 5.24 0 0 1-2.086-.411 5.08 5.08 0 0 1-2.748-2.807 5.7 5.7 0 0 1-.007-4.159 5.123 5.123 0 0 1 2.77-2.844 5.351 5.351 0 0 1 2.146-.419 6.539 6.539 0 0 1 1.285.117 5.3 5.3 0 0 1 1.066.331 4.986 4.986 0 0 1 .9.507 6.9 6.9 0 0 1 .779.646l-1.161 1.337a5.8 5.8 0 0 0-1.307-.926 3.41 3.41 0 0 0-1.573-.353 3.217 3.217 0 0 0-1.359.287 3.35 3.35 0 0 0-1.081.779 3.487 3.487 0 0 0-.7 1.153 4 4 0 0 0-.25 1.426 4.06 4.06 0 0 0 .25 1.433 3.551 3.551 0 0 0 .7 1.167 3.3 3.3 0 0 0 1.081.786 3.219 3.219 0 0 0 1.359.287 3.4 3.4 0 0 0 1.616-.36 6.358 6.358 0 0 0 1.337-.978l1.161 1.176a6.76 6.76 0 0 1-.829.761z"/>
            <path data-name="Path 3795" d="M526.008 97.288h-5.818v2.646h5.157v1.63h-5.157v2.748h5.892v1.631h-7.686V95.656h7.612z"/>
        </g>
        <g data-name="Group 5391">
            <path data-name="Path 3796" d="M184.733 75.986V37.665h8.431v38.321z"/>
            <path data-name="Path 3797" d="M230.526 74.864a23.15 23.15 0 0 1-9.333 1.779 21.843 21.843 0 0 1-8.184-1.479 18.849 18.849 0 0 1-6.35-4.106 18.53 18.53 0 0 1-4.133-6.24 20.615 20.615 0 0 1-1.478-7.884v-.109a19.588 19.588 0 0 1 12.044-18.256 20.334 20.334 0 0 1 8.047-1.561 28.282 28.282 0 0 1 4.681.356 22.386 22.386 0 0 1 3.913 1.014 18.166 18.166 0 0 1 3.4 1.642 25.312 25.312 0 0 1 3.065 2.245l-5.31 6.4a21.571 21.571 0 0 0-2.19-1.642 14.389 14.389 0 0 0-2.272-1.2 13.461 13.461 0 0 0-2.546-.766 15.39 15.39 0 0 0-3.01-.274 9.816 9.816 0 0 0-4.3.961 11.6 11.6 0 0 0-3.5 2.579 11.821 11.821 0 0 0-2.355 3.786 12.6 12.6 0 0 0-.848 4.637v.109a13.49 13.49 0 0 0 .848 4.855 11.53 11.53 0 0 0 2.409 3.868 10.951 10.951 0 0 0 3.669 2.552 11.739 11.739 0 0 0 4.681.9 13.265 13.265 0 0 0 7.937-2.315v-5.513h-8.484v-7.281h16.641v16.642a28.026 28.026 0 0 1-7.042 4.301z"/>
            <path data-name="Path 3798" d="m272.543 75.986-18.559-24.36v24.362h-8.32V37.667h7.773l17.956 23.594V37.667h8.321v38.321z"/>
            <path data-name="Path 3799" d="M289.293 75.986V37.665h8.431v38.321z"/>
            <path data-name="Path 3800" d="M324.657 45.438v30.547h-8.431V45.438h-11.661v-7.773h31.752v7.773z"/>
            <path data-name="Path 3801" d="M342.777 75.986V37.665h28.851v7.5h-20.53v7.773h18.065v7.5h-18.065v8.047h20.8v7.5z"/>
        </g>
        <g data-name="Group 5392">
            <path data-name="Path 3802" d="M1598.031 1164.217a22.1 22.1 0 0 0-3.859 3.886l-5.912-4.763a32.692 32.692 0 0 1 2.874-3.415 15.956 15.956 0 0 1 3.12-2.509 13.511 13.511 0 0 1 3.7-1.544 18.408 18.408 0 0 1 4.6-.524 16.677 16.677 0 0 1 5.5.848 12.006 12.006 0 0 1 4.161 2.409 10.28 10.28 0 0 1 2.627 3.75 12.658 12.658 0 0 1 .9 4.872 13.584 13.584 0 0 1-.629 4.3 13.2 13.2 0 0 1-1.862 3.586 20.566 20.566 0 0 1-3.148 3.367q-1.917 1.67-4.434 3.639l-6.241 4.817h16.7v7.282h-28.357v-6.667l12.755-10.438q1.807-1.475 3.066-2.65a17.037 17.037 0 0 0 2.052-2.241 7.91 7.91 0 0 0 1.15-2.077 6.63 6.63 0 0 0 .356-2.212 4.7 4.7 0 0 0-1.423-3.716 5.413 5.413 0 0 0-3.722-1.257 6.554 6.554 0 0 0-3.974 1.257z" transform="translate(-1197.3 -1118.23)" style="fill:gray"/>
            <path data-name="Path 3803" d="M1663.933 1182.8a19.508 19.508 0 0 1-3.476 6.3 16.194 16.194 0 0 1-5.392 4.215 15.741 15.741 0 0 1-6.98 1.534 15.972 15.972 0 0 1-6.98-1.506 15.607 15.607 0 0 1-5.365-4.188 19.426 19.426 0 0 1-3.422-6.268 25.587 25.587 0 0 1 .028-15.6 19.439 19.439 0 0 1 3.476-6.322 16.2 16.2 0 0 1 5.392-4.216 15.734 15.734 0 0 1 6.98-1.533 15.986 15.986 0 0 1 6.979 1.505 15.651 15.651 0 0 1 5.365 4.188 19.414 19.414 0 0 1 3.422 6.3 24.478 24.478 0 0 1 1.2 7.773 24.111 24.111 0 0 1-1.227 7.818zm-8.02-12.592a13.057 13.057 0 0 0-1.7-3.886 8.293 8.293 0 0 0-2.654-2.573 7 7 0 0 0-6.926-.027 8.214 8.214 0 0 0-2.627 2.518 12.192 12.192 0 0 0-1.669 3.859 19.569 19.569 0 0 0-.576 4.872 18.716 18.716 0 0 0 .6 4.872 13.042 13.042 0 0 0 1.7 3.887 8.29 8.29 0 0 0 2.655 2.573 7 7 0 0 0 6.925.027 8.117 8.117 0 0 0 2.627-2.546 12.609 12.609 0 0 0 1.67-3.859 19.272 19.272 0 0 0 .575-4.844 18.794 18.794 0 0 0-.6-4.872z" transform="translate(-1206.324 -1118.201)" style="fill:gray"/>
            <path data-name="Path 3804" d="M1691.433 1164.217a22.093 22.093 0 0 0-3.859 3.886l-5.913-4.763a32.662 32.662 0 0 1 2.874-3.415 15.978 15.978 0 0 1 3.12-2.509 13.521 13.521 0 0 1 3.7-1.544 18.409 18.409 0 0 1 4.6-.524 16.676 16.676 0 0 1 5.5.848 12 12 0 0 1 4.161 2.409 10.269 10.269 0 0 1 2.627 3.75 12.656 12.656 0 0 1 .9 4.872 13.587 13.587 0 0 1-.629 4.3 13.2 13.2 0 0 1-1.861 3.586 20.6 20.6 0 0 1-3.148 3.367q-1.916 1.67-4.434 3.639l-6.24 4.817h16.7v7.282h-28.357v-6.667l12.755-10.438q1.808-1.475 3.066-2.65a17.044 17.044 0 0 0 2.052-2.241 7.889 7.889 0 0 0 1.15-2.077 6.63 6.63 0 0 0 .356-2.212 4.7 4.7 0 0 0-1.423-3.716 5.416 5.416 0 0 0-3.722-1.257 6.551 6.551 0 0 0-3.975 1.257z" transform="translate(-1216.743 -1118.23)" style="fill:gray"/>
            <path data-name="Path 3805" d="M1734.436 1164.217a22.093 22.093 0 0 0-3.859 3.886l-5.913-4.763a32.692 32.692 0 0 1 2.874-3.415 15.985 15.985 0 0 1 3.12-2.509 13.523 13.523 0 0 1 3.7-1.544 18.407 18.407 0 0 1 4.6-.524 16.677 16.677 0 0 1 5.5.848 12.007 12.007 0 0 1 4.161 2.409 10.273 10.273 0 0 1 2.627 3.75 12.658 12.658 0 0 1 .9 4.872 13.584 13.584 0 0 1-.629 4.3 13.2 13.2 0 0 1-1.861 3.586 20.616 20.616 0 0 1-3.148 3.367q-1.916 1.67-4.434 3.639l-6.241 4.817h16.7v7.282h-28.357v-6.667l12.755-10.438q1.808-1.475 3.066-2.65a17.046 17.046 0 0 0 2.052-2.241 7.889 7.889 0 0 0 1.15-2.077 6.63 6.63 0 0 0 .356-2.212 4.7 4.7 0 0 0-1.423-3.716 5.417 5.417 0 0 0-3.723-1.257 6.55 6.55 0 0 0-3.973 1.257z" transform="translate(-1225.695 -1118.23)" style="fill:gray"/>
        </g>
        <g data-name="Group 5401" transform="translate(-1094.648 -1108.472)">
            <path data-name="Path 3764" d="M1220.48 1250.39a84.891 84.891 0 0 0-16.46-12.636 88.262 88.262 0 0 0-56.793-11.358c-2.506.326-4.972.847-7.44 1.393a87.176 87.176 0 0 0-19.694 7.125c-.964.474-1.236 1.078-.666 2.01a11.623 11.623 0 0 1-2.408 10.672c-1.05 1.041-.8 1.805.085 2.781a75.292 75.292 0 0 0 10.488 9.8 69.345 69.345 0 0 0 28.211 12.832 64.585 64.585 0 0 0 28.812 0l2.445-.6a70.57 70.57 0 0 0 33.463-19.143c1.095-1.084 1.018-1.829-.043-2.876z" transform="translate(-4.514 -24.364)" style="fill:#b32574"/>
            <path data-name="Path 3806" d="M1096.231 1165.205s9.03-43.265 53.912-54.586c0 0 24.934 10.244 35.447 21.835 0 0-29.18 2.123-48.588 18.5 0 0-4.448-2.931-8.592-1.112a9.782 9.782 0 0 0-5.762 7.077s-15.129 2.019-26.417 8.286z" transform="translate(-.33 -.447)" style="fill:#f4bf69"/>
            <path data-name="Path 3807" d="M1094.823 1184.215s-1.482 19.543 4.178 33.829c0 0 1.145-.674 1.752-.337 0 0 2.561-20.958 21.835-40.906 0 0 2.056-2.376-1.053-2.7 0-.001-15.862 2.768-26.712 10.114z" transform="translate(0 -13.661)" style="fill:#eb5764"/>
            <path data-name="Path 3808" d="M1213.693 1132.276s14.826.674 24.934 4.313c0 0-21.025-31-63.076-27.9l.227 1.129s12.307 3.589 29.289 18.819c0 0 3.285-.724 5.156.235a11.557 11.557 0 0 1 3.47 3.404z" transform="translate(-16.841)" style="fill:#fae06e"/>
            <path data-name="Path 3809" d="M1107.975 1216.973a89.713 89.713 0 0 1 20.622-38.008 1.617 1.617 0 0 1 1.718-.169s8.457 4.144 12.231-5.964c0 0 58.966 1.954 77.97 61.4 0 0-47.281-44.62-105.923-13.621 0 .001-4.593-3.911-6.618-3.638z" transform="translate(-2.774 -13.397)" style="fill:#ea3e65"/>
            <circle data-name="Ellipse 572" cx="7.548" cy="7.548" r="7.548" transform="translate(1094.823 1208.157)" style="fill:#86197f"/>
            <path data-name="Path 3810" d="M1150.7 1161.233s20.891-15.23 46.229-17.252c0 0 2.358 5.526 8.222 3.4 0 0 28.708 29.6 27.09 75.7 0 0-16.173-56.735-80.733-60.1-.001.004-.169-1.672-.808-1.748z" transform="translate(-11.668 -7.392)" style="fill:#ed7464"/>
            <path data-name="Path 3811" d="M1224.06 1143.981a107.552 107.552 0 0 1 28.911 6.335s22.643 33.072 0 73.952c0 0 1.617-45.986-28.911-80.287z" transform="translate(-26.94 -7.392)" style="fill:#f09466"/>
        </g>
    </g>
</svg>
