<svg xmlns="http://www.w3.org/2000/svg" width="177.608" height="178.058" viewBox="0 0 177.608 178.058">
    <g data-name="Group 5402" transform="translate(-1094.648 -1108.472)" style="opacity:.1">
        <path data-name="Path 3764" d="M1247.106 1256.75a106.6 106.6 0 0 0-20.668-15.867 110.827 110.827 0 0 0-71.312-14.262c-3.147.41-6.243 1.064-9.342 1.749a109.467 109.467 0 0 0-24.728 8.947c-1.21.594-1.552 1.353-.836 2.524.517 2.542.877 5.086.027 7.633-.738 2.072-1.458 4.189-3.051 5.768-1.318 1.307-1 2.267.106 3.492a94.557 94.557 0 0 0 13.169 12.309 87.076 87.076 0 0 0 35.424 16.112 81.1 81.1 0 0 0 36.178 0l3.07-.753a88.612 88.612 0 0 0 42.018-24.038c1.374-1.364 1.277-2.3-.055-3.614z" transform="translate(-.124 -.671)" style="fill:#b32574"/>
        <path data-name="Path 3806" d="M1096.231 1179.161s11.339-54.326 67.695-68.542c0 0 31.308 12.863 44.509 27.417 0 0-36.64 2.665-61.01 23.228 0 0-5.585-3.681-10.789-1.4s-6.474 6.22-7.235 8.886c-.001.003-19.001 2.541-33.17 10.411z" transform="translate(-.009 -.013)" style="fill:#f4bf69"/>
        <path data-name="Path 3807" d="M1094.868 1186.8s-1.861 24.54 5.246 42.478c0 0 1.438-.846 2.2-.423 0 0 3.215-26.316 27.417-51.364 0 0 2.581-2.983-1.322-3.4-.001.009-19.918 3.487-33.541 12.709z" transform="translate(0 -.376)" style="fill:#eb5764"/>
        <path data-name="Path 3808" d="M1223.444 1138.362s18.616.846 31.308 5.416c0 0-26.4-38.924-79.2-35.032l.285 1.418s15.454 4.506 36.777 23.63c0 0 4.125-.91 6.474.3a14.512 14.512 0 0 1 4.356 4.268z" transform="translate(-.464)" style="fill:#fae06e"/>
        <path data-name="Path 3809" d="M1107.975 1228.257a112.648 112.648 0 0 1 25.894-47.725 2.03 2.03 0 0 1 2.158-.212s10.62 5.2 15.358-7.489c0 0 74.041 2.454 97.9 77.1 0 0-59.369-56.028-133-17.1 0-.004-5.771-4.913-8.31-4.574z" transform="translate(-.076 -.369)" style="fill:#ea3e65"/>
        <circle data-name="Ellipse 572" cx="9.477" cy="9.477" r="9.477" transform="translate(1094.868 1233.642)" style="fill:#86197f"/>
        <path data-name="Path 3810" d="M1150.7 1165.643s26.232-19.124 58.048-21.662c0 0 2.961 6.939 10.323 4.273 0 0 36.047 37.17 34.016 95.059 0 0-20.308-71.239-101.373-75.47 0 0-.214-2.104-1.014-2.2z" transform="translate(-.321 -.203)" style="fill:#ed7464"/>
        <path data-name="Path 3811" d="M1224.06 1143.981s18.785 1.1 36.3 7.954c0 0 28.432 41.526 0 92.859.002 0 2.033-57.742-36.3-100.813z" transform="translate(-.742 -.203)" style="fill:#f09466"/>
    </g>
</svg>
