<svg xmlns="http://www.w3.org/2000/svg" width="279.322" height="280.028" viewBox="0 0 279.322 280.028">
    <g data-name="Group 5403" transform="translate(-1094.648 -1108.472)" style="opacity:.1">
        <path data-name="Path 3764" d="M1322 1274.639a167.646 167.646 0 0 0-32.5-24.953 163.473 163.473 0 0 0-55.261-20.888c-18.869-3.981-37.843-4.153-56.89-1.542-4.949.644-9.818 1.673-14.692 2.75a172.155 172.155 0 0 0-38.89 14.07c-1.9.935-2.441 2.128-1.315 3.97.813 4 1.379 8 .042 12-1.161 3.259-2.293 6.588-4.8 9.071-2.073 2.055-1.573 3.565.168 5.492a148.71 148.71 0 0 0 20.71 19.358 136.944 136.944 0 0 0 55.71 25.34 127.539 127.539 0 0 0 56.9.006l4.828-1.184c25.637-6.306 47.463-19.231 66.081-37.8 2.154-2.152 2.002-3.623-.091-5.69z" transform="translate(12.223 65.972)" style="fill:#b32574"/>
        <path data-name="Path 3806" d="M1096.231 1218.413s17.832-85.437 106.462-107.794c0 0 49.238 20.229 70 43.118 0 0-57.623 4.192-95.95 36.53 0 0-8.783-5.789-16.967-2.2s-10.181 9.782-11.379 13.975c.003.003-29.876 3.995-52.166 16.371z" transform="translate(.892 1.21)" style="fill:#f4bf69"/>
        <path data-name="Path 3807" d="M1094.994 1194.077s-2.927 38.593 8.251 66.8c0 0 2.262-1.331 3.459-.664 0 0 5.057-41.388 43.118-80.78 0 0 4.059-4.691-2.08-5.34 0 .007-31.323 5.478-52.748 19.984z" transform="translate(0 36.992)" style="fill:#eb5764"/>
        <path data-name="Path 3808" d="M1250.872 1155.479s29.277 1.33 49.238 8.517c0 0-41.52-61.216-124.56-55.094l.449 2.23s24.3 7.087 57.839 37.162c0 0 6.487-1.431 10.181.464s6.853 6.721 6.853 6.721z" transform="translate(45.602)" style="fill:#fae06e"/>
        <path data-name="Path 3809" d="M1107.975 1260s8.517-40.19 40.723-75.056a3.192 3.192 0 0 1 3.393-.333s16.7 8.184 24.154-11.777c0 0 116.443 3.859 153.971 121.251 0 0-93.368-88.114-209.172-26.9 0 0-9.075-7.72-13.069-7.185z" transform="translate(7.512 36.278)" style="fill:#ea3e65"/>
        <circle data-name="Ellipse 572" cx="14.905" cy="14.905" r="14.905" transform="translate(1094.994 1305.325)" style="fill:#86197f"/>
        <path data-name="Path 3810" d="M1150.7 1178.048s41.254-30.075 91.292-34.068c0 0 4.657 10.913 16.236 6.721 0 0 56.691 58.456 53.5 149.5 0 0-31.938-112.037-159.427-118.69-.001-.002-.338-3.311-1.601-3.463z" transform="translate(31.594 20.016)" style="fill:#ed7464"/>
        <path data-name="Path 3811" d="M1224.06 1143.981s29.544 1.731 57.091 12.509c0 0 44.714 65.308 0 146.037 0 0 3.194-90.809-57.091-158.546z" transform="translate(72.945 20.016)" style="fill:#f09466"/>
    </g>
</svg>
